<svg xmlns="http://www.w3.org/2000/svg" version="1.1" xmlns:xlink="http://www.w3.org/1999/xlink" xmlns:svgjs="http://svgjs.dev/svgjs" width="1500" height="518" viewBox="0 0 1500 518"><g transform="matrix(1,0,0,1,-0.9090909090909918,0.9018702504164366)"><svg viewBox="0 0 396 137" data-background-color="#ffffff" preserveAspectRatio="xMidYMid meet" height="518" width="1500" xmlns="http://www.w3.org/2000/svg" xmlns:xlink="http://www.w3.org/1999/xlink"><g id="tight-bounds" transform="matrix(1,0,0,1,0.2400000000000091,-0.23852552955028727)"><svg viewBox="0 0 395.52 137.4769582226801" height="137.4769582226801" width="395.52"><g><svg viewBox="0 0 657.6538529411159 228.59084563554413" height="137.4769582226801" width="395.52"><g transform="matrix(1,0,0,1,262.13385294111595,65.72980818273236)"><svg viewBox="0 0 395.52 97.13122927007942" height="97.13122927007942" width="395.52"><g id="textblocktransform"><svg viewBox="0 0 395.52 97.13122927007942" height="97.13122927007942" width="395.52" id="textblock"><g><svg viewBox="0 0 395.52 71.04281524926685" height="71.04281524926685" width="395.52"><g transform="matrix(1,0,0,1,0,0)"><svg width="395.52" viewBox="3.5 -36.25 204.58 36.75" height="71.04281524926685" data-palette-color="#8bc53f"><path d="M3.5 0L3.5-33.85 9.45-33.85 9.45 0 3.5 0ZM26.95-33.85Q26.15-30.1 25.18-27.48 24.2-24.85 23.05-23.03 21.9-21.2 20.53-19.93 19.15-18.65 17.6-17.6L17.6-17.6 29.9 0 23 0 10.1-18.3 10.1-18.65Q14.7-20.35 17.23-24.23 19.75-28.1 21.1-33.85L21.1-33.85 26.95-33.85ZM41.2-25.5Q46.95-25.5 49.55-22.1 52.15-18.7 52.15-12.75L52.15-12.75Q52.15-9.95 51.45-7.53 50.75-5.1 49.32-3.33 47.9-1.55 45.75-0.53 43.6 0.5 40.75 0.5L40.75 0.5Q37.9 0.5 35.82-0.38 33.75-1.25 32.4-2.9 31.05-4.55 30.42-6.9 29.8-9.25 29.8-12.2L29.8-12.2Q29.8-15.05 30.5-17.48 31.2-19.9 32.62-21.68 34.05-23.45 36.2-24.48 38.35-25.5 41.2-25.5L41.2-25.5ZM40.7-21.3Q39.25-21.3 38.32-20.65 37.4-20 36.87-18.82 36.35-17.65 36.15-16.07 35.95-14.5 35.95-12.7L35.95-12.7Q35.95-10.85 36.17-9.2 36.4-7.55 37-6.33 37.6-5.1 38.62-4.4 39.65-3.7 41.25-3.7L41.25-3.7Q42.7-3.7 43.62-4.35 44.55-5 45.07-6.18 45.6-7.35 45.8-8.9 46-10.45 46-12.25L46-12.25Q46-14.1 45.77-15.75 45.55-17.4 44.95-18.65 44.35-19.9 43.32-20.6 42.3-21.3 40.7-21.3L40.7-21.3ZM78.3 0L72.65 0 72.65-16.15Q72.65-18.25 71.9-19.53 71.15-20.8 69.34-20.8L69.34-20.8Q68.2-20.8 67.12-20.23 66.05-19.65 65.2-18.55 64.34-17.45 63.82-15.88 63.3-14.3 63.3-12.35L63.3-12.35 63.3 0 57.6 0 57.6-12.6Q57.6-15.6 57.2-17.63 56.8-19.65 56.35-20.9L56.35-20.9Q55.8-22.35 55.15-23.25L55.15-23.25 59.65-25.05Q60.15-24.5 60.65-23.7L60.65-23.7Q61.05-23 61.45-21.98 61.85-20.95 62.1-19.65L62.1-19.65Q63.4-22.65 65.84-23.98 68.3-25.3 71-25.3L71-25.3Q74.84-25.3 76.57-22.98 78.3-20.65 78.3-16.7L78.3-16.7 78.3 0ZM95.74-19.7Q94.84-19.7 93.94-19.25 93.04-18.8 92.34-18.03 91.64-17.25 91.19-16.15 90.74-15.05 90.74-13.7L90.74-13.7 90.74 0 85.04 0 85.04-12.6Q85.04-15.6 84.64-17.63 84.24-19.65 83.79-20.9L83.79-20.9Q83.24-22.35 82.59-23.25L82.59-23.25 87.09-25.05Q87.54-24.5 88.04-23.7L88.04-23.7Q88.44-23 88.84-22.05 89.24-21.1 89.49-19.8L89.49-19.8Q90.49-22.7 92.39-23.98 94.29-25.25 96.69-25.25L96.69-25.25Q97.84-25.25 98.84-24.98 99.84-24.7 99.79-24.7L99.79-24.7 98.19-19.15Q98.24-19.15 97.62-19.43 96.99-19.7 95.74-19.7L95.74-19.7ZM121.64-23.85L121.64-12.05Q121.64-9.05 122.02-7.03 122.39-5 122.84-3.75L122.84-3.75Q123.39-2.25 124.04-1.4L124.04-1.4 119.59 0.4Q118.94-0.25 118.39-1.15L118.39-1.15Q117.94-1.95 117.54-3.08 117.14-4.2 117.04-5.75L117.04-5.75Q116.19-2.75 114.32-1.23 112.44 0.3 109.24 0.3L109.24 0.3Q106.89 0.3 105.17-0.58 103.44-1.45 102.29-3.08 101.14-4.7 100.59-7 100.04-9.3 100.04-12.1L100.04-12.1Q100.04-14.95 100.92-17.38 101.79-19.8 103.37-21.55 104.94-23.3 107.14-24.3 109.34-25.3 111.99-25.3L111.99-25.3Q113.49-25.3 115.12-25.08 116.74-24.85 118.14-24.6 119.54-24.35 120.52-24.13 121.49-23.9 121.64-23.85L121.64-23.85ZM110.19-3.7Q111.44-3.7 112.49-4.55 113.54-5.4 114.32-6.78 115.09-8.15 115.52-9.93 115.94-11.7 115.94-13.55L115.94-13.55 115.94-20.75Q115.44-20.9 114.44-21.1 113.44-21.3 112.64-21.3L112.64-21.3Q110.74-21.3 109.52-20.65 108.29-20 107.54-18.85 106.79-17.7 106.49-16.1 106.19-14.5 106.19-12.6L106.19-12.6Q106.19-10.85 106.29-9.25 106.39-7.65 106.82-6.4 107.24-5.15 108.04-4.42 108.84-3.7 110.19-3.7L110.19-3.7ZM150.84-1.4L146.39 0.4Q146.29 0.35 145.94-0.08 145.59-0.5 145.16-1.25 144.74-2 144.34-3.13 143.94-4.25 143.84-5.75L143.84-5.75Q142.99-2.75 141.11-1.23 139.24 0.3 136.04 0.3L136.04 0.3Q133.69 0.3 131.96-0.58 130.24-1.45 129.09-3.08 127.94-4.7 127.39-7 126.84-9.3 126.84-12.1L126.84-12.1Q126.84-14.95 127.71-17.38 128.59-19.8 130.16-21.55 131.74-23.3 133.94-24.3 136.14-25.3 138.79-25.3L138.79-25.3Q139.69-25.3 140.71-25.2 141.74-25.1 142.74-24.95L142.74-24.95 142.74-36.25 148.44-35.25 148.44-12.05Q148.44-9.05 148.79-7.08 149.14-5.1 149.59-3.88 150.04-2.65 150.41-2.1 150.79-1.55 150.84-1.4L150.84-1.4ZM136.99-3.75Q138.24-3.75 139.29-4.6 140.34-5.45 141.11-6.83 141.89-8.2 142.31-9.95 142.74-11.7 142.74-13.55L142.74-13.55 142.74-20.75Q142.24-20.9 141.24-21.1 140.24-21.3 139.44-21.3L139.44-21.3Q137.54-21.3 136.31-20.65 135.09-20 134.34-18.85 133.59-17.7 133.29-16.1 132.99-14.5 132.99-12.6L132.99-12.6Q132.99-10.85 133.09-9.25 133.19-7.65 133.61-6.43 134.04-5.2 134.84-4.48 135.64-3.75 136.99-3.75L136.99-3.75ZM168.13 0L168.13-33.85 174.08-33.85 174.08 0 168.13 0ZM177.33 0L190.33-33.85 195.03-33.85 208.08 0 201.73 0 198.63-8.85 186.43-8.85 183.23 0 177.33 0ZM188.03-13.25L197.08-13.25Q195.48-17.75 194.33-21.43 193.18-25.1 192.58-27.2L192.58-27.2Q191.88-24.95 190.73-21.3 189.58-17.65 188.03-13.25L188.03-13.25Z" opacity="1" transform="matrix(1,0,0,1,0,0)" fill="#8bc53f" class="wordmark-text-0" data-fill-palette-color="primary" id="text-0"></path></svg></g></svg></g><g transform="matrix(1,0,0,1,0,87.81431890205278)"><svg viewBox="0 0 232.209792 9.316910368026644" height="9.316910368026644" width="232.209792"><g transform="matrix(1,0,0,1,0,0)"><svg width="232.209792" viewBox="4 -28.8 960.72 38.55" height="9.316910368026644" data-palette-color="#8bc53f"><path d="M4-25.3L4-25.3 9.7-28.75 20-28.75 20-23.1 10.3-23.1 10.3-17.2 20-17.2 20-11.5 10.3-11.5 10.3 0 4 0 4-25.3ZM38.45-25.3L38.45-25.3 32.55-28.75 22.25-28.75 22.25-23.1 32.15-23.1 32.15-17.2 22.25-17.2 22.25-11.5 32.15-11.5 32.15 0 38.45 0 38.45-25.3ZM47.45 0L47.45-21.85 53.7-21.85 53.7-19.7 61.2-21.85 61.2-17.2 53.7-17.2 53.7 0 47.45 0ZM69.95-15.05L69.95-19.1 63.45-21.85 63.45-15.05 69.95-15.05ZM83.95-17.2L83.95-21.85 91.45-21.85 91.45-17.2 83.95-17.2ZM91.45-7.5L97.75-7.5 97.75-3.45 92.05 0 83.95 0 83.95-5.25 91.45-5.25 91.45-7.5ZM70.95-19.35L81.7-25.3 81.7-5.25 81.7 0 75.45-3.45 75.45-17.2 70.95-17.15 70.95-19.35ZM103.24-22L109.54-22 109.54 0.05 103.24 0.05 103.24-22ZM109.44-28.7L109.44-24.05 103.24-24.05 103.24-28.7 109.44-28.7ZM128.29-13.2L128.29-17.2 135.84-17.2 135.84-13.2 128.29-13.2ZM126.09-28.8L126.09 0 119.84 0 119.84-13.2 115.04-13.2 115.04-17.2 119.84-17.2 119.84-25.35 126.09-28.8ZM142.09-21.85L135.84-21.85 135.84-24.15 128.29-24.15 128.29-28.8 136.44-28.8 142.09-25.35 142.09-21.85ZM143.59-22L149.89-22 149.89 0.05 143.59 0.05 143.59-22ZM149.79-28.7L149.79-24.05 143.59-24.05 143.59-28.7 149.79-28.7ZM157.89-3.45L157.89-18.6 163.59-22.05 171.79-22.05 171.79-17.35 164.24-17.35 164.24-5.3 171.59-5.3 171.59 0 163.59 0 157.89-3.45ZM181.59-15.1L187.89-15.1 187.89-18.6 182.19-22.05 174.04-22.05 174.04-17.35 181.59-17.35 181.59-15.1ZM181.59-6.95L187.89-6.95 187.89-3.45 182.19 0 174.04 0 174.04-5.3 181.59-5.3 181.59-6.95ZM195.88-22L202.18-22 202.18 0.05 195.88 0.05 195.88-22ZM202.08-28.7L202.08-24.05 195.88-24.05 195.88-28.7 202.08-28.7ZM210.18-3.4L210.18-9.75 215.88-13.2 224.08-13.2 224.08-9.35 216.53-9.35 216.53-5.25 224.08-5.25 224.08 0.05 215.88 0.05 210.18-3.4ZM216.53-15.05L210.18-15.05 210.18-18.5 215.88-22 224.08-22 224.08-17.3 216.53-17.3 216.53-15.05ZM240.18 0.05L240.18-18.5 234.48-22 226.28-22 226.28-17.3 233.83-17.3 233.83-13.2 226.28-13.2 226.28-9.35 233.83-9.35 233.83-5.25 226.48-5.25 226.48 0.05 240.18 0.05ZM249.68 0.05L249.68-28.75 256.08-28.75 256.08 0.05 249.68 0.05ZM280.07-28.75L280.07-28.75 286.37-28.75 286.37 0 280.07 0 280.07-28.75ZM291.37-0.05L291.37-22 297.72-22 297.72-19.85 305.12-22 305.12-17.3 297.72-17.3 297.72-0.05 291.37-0.05ZM321.32-0.05L321.32-18.55 315.42-22 307.52-22 307.52-17.3 315.07-17.3 315.07-0.05 321.32-0.05ZM339.32-17.2L339.32-21.85 346.82-21.85 346.82-17.2 339.32-17.2ZM346.82-7.5L353.12-7.5 353.12-3.45 347.42 0 339.32 0 339.32-5.25 346.82-5.25 346.82-7.5ZM326.32-19.35L337.07-25.3 337.07-5.25 337.07 0 330.82-3.45 330.82-17.2 326.32-17.15 326.32-19.35ZM388.82-18.55L388.82-12.85 382.92-9.4 374.92-9.4 374.92-13.25 382.47-13.25 382.47-17.35 374.92-17.35 374.92-22.05 382.92-22.05 388.82-18.55ZM382.27-6.95L388.82-6.95 388.82-3.45 382.92 0 374.92 0 374.92-5.3 382.27-5.3 382.27-6.95ZM358.62-18.55L358.62-3.45 364.52 0 372.47 0 372.47-5.3 364.92-5.3 364.92-9.4 372.47-9.4 372.47-13.25 364.92-13.25 364.92-17.35 372.47-17.35 372.47-22.05 364.52-22.05 358.62-18.55ZM397.81 0.05L397.81-28.75 404.21-28.75 404.21 0.05 397.81 0.05ZM414.21 0.05L414.21-28.75 420.61-28.75 420.61 0.05 414.21 0.05ZM429.61-22L435.91-22 435.91 0.05 429.61 0.05 429.61-22ZM435.81-28.7L435.81-24.05 429.61-24.05 429.61-28.7 435.81-28.7ZM450.36 2.25L443.91 2.25 443.91 6.3 449.76 9.75 457.66 9.75 457.66 4.5 450.36 4.5 450.36 2.25ZM443.91-6.3L443.91-18.55 449.76-22 457.66-22 457.66-17.2 450.26-17.2 450.26-6.85 457.66-6.85 457.66-2.8 449.76-2.8 443.91-6.3ZM473.96 6.3L473.96-22 460.16-22 460.16-17.2 467.61-17.2 467.61-6.85 460.16-6.85 460.16-2.8 467.61-2.8 467.61 4.5 460.16 4.5 460.16 9.75 468.11 9.75 473.96 6.3ZM509.05-18.55L509.05-12.85 503.15-9.4 495.15-9.4 495.15-13.25 502.7-13.25 502.7-17.35 495.15-17.35 495.15-22.05 503.15-22.05 509.05-18.55ZM502.5-6.95L509.05-6.95 509.05-3.45 503.15 0 495.15 0 495.15-5.3 502.5-5.3 502.5-6.95ZM478.85-18.55L478.85-3.45 484.75 0 492.7 0 492.7-5.3 485.15-5.3 485.15-9.4 492.7-9.4 492.7-13.25 485.15-13.25 485.15-17.35 492.7-17.35 492.7-22.05 484.75-22.05 478.85-18.55ZM518.05-0.05L518.05-22 524.4-22 524.4-19.85 531.8-22 531.8-17.3 524.4-17.3 524.4-0.05 518.05-0.05ZM548-0.05L548-18.55 542.1-22 534.2-22 534.2-17.3 541.75-17.3 541.75-0.05 548-0.05ZM556.5-3.45L556.5-18.6 562.2-22.05 570.4-22.05 570.4-17.35 562.85-17.35 562.85-5.3 570.2-5.3 570.2 0 562.2 0 556.5-3.45ZM580.2-15.1L586.5-15.1 586.5-18.6 580.8-22.05 572.65-22.05 572.65-17.35 580.2-17.35 580.2-15.1ZM580.2-6.95L586.5-6.95 586.5-3.45 580.8 0 572.65 0 572.65-5.3 580.2-5.3 580.2-6.95ZM624.69-18.55L624.69-12.85 618.79-9.4 610.79-9.4 610.79-13.25 618.34-13.25 618.34-17.35 610.79-17.35 610.79-22.05 618.79-22.05 624.69-18.55ZM618.14-6.95L624.69-6.95 624.69-3.45 618.79 0 610.79 0 610.79-5.3 618.14-5.3 618.14-6.95ZM594.49-18.55L594.49-3.45 600.39 0 608.34 0 608.34-5.3 600.79-5.3 600.79-9.4 608.34-9.4 608.34-13.25 600.79-13.25 600.79-17.35 608.34-17.35 608.34-22.05 600.39-22.05 594.49-18.55ZM629.59 3.45L629.59-6.9 635.29-6.9 635.29 0 629.59 3.45ZM659.29-28.75L659.29-28.75 675.29-28.75 675.29-22.85 665.59-22.85 665.59-17.2 675.29-17.2 675.29-11.5 665.59-11.5 665.59-5.65 675.09-5.65 675.09 0 659.29 0 659.29-28.75ZM677.74-5.65L677.74-5.65 677.74 0 693.74 0 693.74-5.65 677.74-5.65ZM693.74-22.85L693.74-22.85 693.74-28.75 677.54-28.75 677.54-22.85 693.74-22.85ZM685.64-11.5L685.64-11.5 685.64-17.2 677.54-17.2 677.54-11.5 685.64-11.5ZM728.53-28.8L728.53 0 714.93 0 714.93-5.25 722.23-5.25 722.23-17.25 714.73-17.25 714.73-21.9 722.23-21.9 722.23-28.8 728.53-28.8ZM698.73-3.45L698.73-18.45 704.43-21.9 712.53-21.9 712.53-17.25 704.83-17.25 704.83-5.25 712.33-5.25 712.33 0 704.43 0 698.73-3.45ZM767.83-21.85L767.83 0 761.58 0 761.58-2.25 754.08 0 754.08-5.25 761.58-5.25 761.58-21.85 767.83-21.85ZM738.03-21.85L738.03-3.45 743.68 0 751.78 0 751.78-5.25 744.33-5.25 744.33-21.85 738.03-21.85ZM776.83-3.45L776.83-18.6 782.53-22.05 790.73-22.05 790.73-17.35 783.18-17.35 783.18-5.3 790.53-5.3 790.53 0 782.53 0 776.83-3.45ZM800.53-15.1L806.83-15.1 806.83-18.6 801.13-22.05 792.98-22.05 792.98-17.35 800.53-17.35 800.53-15.1ZM800.53-6.95L806.83-6.95 806.83-3.45 801.13 0 792.98 0 792.98-5.3 800.53-5.3 800.53-6.95ZM814.83-3.4L814.83-9.75 820.53-13.2 828.73-13.2 828.73-9.35 821.18-9.35 821.18-5.25 828.73-5.25 828.73 0.05 820.53 0.05 814.83-3.4ZM821.18-15.05L814.83-15.05 814.83-18.5 820.53-22 828.73-22 828.73-17.3 821.18-17.3 821.18-15.05ZM844.83 0.05L844.83-18.5 839.13-22 830.93-22 830.93-17.3 838.48-17.3 838.48-13.2 830.93-13.2 830.93-9.35 838.48-9.35 838.48-5.25 831.13-5.25 831.13 0.05 844.83 0.05ZM862.82-17.2L862.82-21.85 870.32-21.85 870.32-17.2 862.82-17.2ZM870.32-7.5L876.62-7.5 876.62-3.45 870.92 0 862.82 0 862.82-5.25 870.32-5.25 870.32-7.5ZM849.82-19.35L860.57-25.3 860.57-5.25 860.57 0 854.32-3.45 854.32-17.2 849.82-17.15 849.82-19.35ZM882.12-22L888.42-22 888.42 0.05 882.12 0.05 882.12-22ZM888.32-28.7L888.32-24.05 882.12-24.05 882.12-28.7 888.32-28.7ZM896.42-3.5L896.42-18.55 902.27-22 910.17-22 910.17-17.3 902.67-17.3 902.67-5.4 910.17-5.4 910.17-0.05 902.27-0.05 896.42-3.5ZM925.77-3.5L925.77-18.55 919.92-22 911.97-22 911.97-17.3 919.52-17.3 919.52-5.4 911.97-5.4 911.97-0.05 919.92-0.05 925.77-3.5ZM934.77-0.05L934.77-22 941.12-22 941.12-19.85 948.52-22 948.52-17.3 941.12-17.3 941.12-0.05 934.77-0.05ZM964.72-0.05L964.72-18.55 958.82-22 950.92-22 950.92-17.3 958.47-17.3 958.47-0.05 964.72-0.05Z" opacity="1" transform="matrix(1,0,0,1,0,0)" fill="#8bc53f" class="slogan-text-1" data-fill-palette-color="secondary" id="text-1"></path></svg></g></svg></g></svg></g></svg></g><g><svg viewBox="0 0 228.59084563554413 228.59084563554413" height="228.59084563554413" width="228.59084563554413"><g><svg></svg></g><g id="icon-0"><svg viewBox="0 0 228.59084563554413 228.59084563554413" height="228.59084563554413" width="228.59084563554413"><g><path d="M0 114.295c0-63.124 51.172-114.295 114.295-114.295 63.124 0 114.295 51.172 114.296 114.295 0 63.124-51.172 114.295-114.296 114.296-63.124 0-114.295-51.172-114.295-114.296zM114.295 222.184c59.585 0 107.889-48.303 107.889-107.889 0-59.585-48.303-107.889-107.889-107.888-59.585 0-107.889 48.303-107.888 107.888 0 59.585 48.303 107.889 107.888 107.889z" data-fill-palette-color="accent" fill="#5d9943" stroke="transparent"></path></g><g transform="matrix(1,0,0,1,46.99707902926457,46.99707902926457)"><svg viewBox="0 0 134.596687577015 134.596687577015" height="134.596687577015" width="134.596687577015"><g><svg xmlns="http://www.w3.org/2000/svg" xmlns:xlink="http://www.w3.org/1999/xlink" version="1.1" x="0" y="0" viewBox="5 5 90 90" style="enable-background:new 0 0 100 100;" xml:space="preserve" height="134.596687577015" width="134.596687577015" class="icon-cg-0" data-fill-palette-color="accent" id="cg-0"><g fill="#5d9943" data-fill-palette-color="accent"><path d="M84 5H16C9.9 5 5 9.6 5 15.3V67c0 5.7 4.9 10.3 11 10.3h7.2v15.3c0 0.9 0.6 1.8 1.5 2.2 0.4 0.2 0.7 0.2 1.1 0.2 0.6 0 1.2-0.2 1.7-0.5l22.7-17.2H84c6.1 0 11-4.6 11-10.3V15.3C95 9.6 90.1 5 84 5zM39 55.5H33V26.3H39V55.5zM63.7 55.5l-1.9-6H51l-2 6h-6.4l10.4-29.2H60l10.3 29.2H63.7z" fill="#5d9943" data-fill-palette-color="accent"></path><polygon points="52.7,44.5 60.2,44.5 56.5,33  " fill="#5d9943" data-fill-palette-color="accent"></polygon></g></svg></g></svg></g></svg></g></svg></g></svg></g><defs></defs></svg><rect width="395.52" height="137.4769582226801" fill="none" stroke="none" visibility="hidden"></rect></g></svg></g></svg>